<?xml version="1.0" encoding="UTF-8"?>
<svg id="Layer_1" xmlns="http://www.w3.org/2000/svg" version="1.1" viewBox="0 0 679.7 766.1">
  <!-- Generator: Adobe Illustrator 29.0.0, SVG Export Plug-In . SVG Version: 2.1.0 Build 186)  -->
  <defs>
    <style>
      .st0 {
        fill: #cd746e;
      }

      .st1 {
        font-family: BaskOldFace, 'Baskerville Old Face';
        font-size: 115.7px;
      }

      .st1, .st2 {
        isolation: isolate;
      }
    </style>
  </defs>
  <g id="SVGRepo_iconCarrier">
    <path class="st0" d="M624.7,84c-2.9-2.3-6.5-3.9-10.5-4.3h0l-64,.7V15.6c0-4.1-1.7-7.8-4.4-10.5h0c-2.7-2.7-6.3-4.3-10.3-4.3h-.2c-5.8-.5-12.6-.8-19.5-.8-69.1,0-131.9,27.4-177.9,71.9h0C291.8,27.4,229.1,0,160,0s-13.7.3-20.4.8h.9c-4.1,0-7.8,1.7-10.5,4.3h0c-2.7,2.7-4.4,6.4-4.4,10.5h0v64.8l-64-.7h-.2c-4,0-7.7,1.6-10.3,4.3h0c-2.7,2.7-4.4,6.4-4.4,10.5h0v473.9c0,8.2,6.6,14.8,14.8,14.8s5-.7,7.1-1.8h0c37.6-22.2,82.9-35.4,131.2-35.4s93.4,13.1,132.2,36l-1.2-.7c1.1.7,2.5,1.2,3.9,1.5h.1c.5.2,1.2.3,1.9.3h1.5c0,0,.3,0,.3,0,2.6,0,5-.7,7.1-1.9h0c37.5-22.2,82.7-35.3,131-35.3s93.6,13.2,132.4,36.1l-1.2-.7c2,1.2,4.4,1.8,7,1.8s5.4-.8,7.6-2.2h0c4.3-2.6,7.2-7.3,7.2-12.6h0V94.6h0c0-4.1-1.7-7.8-4.4-10.5h0s0,0,0,0ZM155.2,30.7c3.3-.2,7.1-.3,11-.3,62,0,117.9,26.6,156.7,69v.2c.1,0,.1,431.2.1,431.2-44.1-34.8-100.5-55.9-161.8-55.9s-4.2,0-6.3,0h.3V30.7h0ZM76.2,544.6V109.5l49.4.5v379.5c0,8.2,6.6,14.8,14.8,14.8h0c1.7,0,3.8,0,5.8,0,36.2,0,71,6.1,103.4,17.3l-2.2-.7c-14.4-2.6-31-4-47.9-4-44.8,0-87.2,10.2-125,28.5l1.7-.8h0s0,0,0,0ZM352.7,99.5c39-42.5,94.8-69.2,156.9-69.2s7.7.1,11.5.3h-.5s0,444.2,0,444.2c-1.8,0-3.9,0-6,0-61.3,0-117.7,21-162.4,56.3l.5-.4V99.5h0ZM599.5,544.6c-36.2-17.3-78.5-27.6-123.3-27.9h-.1c-16.9,0-33.4,1.5-49.4,4.4l1.7-.3c30.2-10.5,65-16.6,101.2-16.6s4.1,0,6.1,0h-.3c8.2,0,14.8-6.6,14.8-14.8h0V110l49.4-.5v435.1h0Z"/>
  </g>
  <g class="st2">
    <text class="st1" transform="translate(0 726.3)"><tspan x="0" y="0">T</tspan></text>
    <text class="st1" transform="translate(81.8 726.3)"><tspan x="0" y="0">heBookSto</tspan></text>
    <text class="st1" transform="translate(588 726.3)"><tspan x="0" y="0">r</tspan></text>
    <text class="st1" transform="translate(629.1 726.3)"><tspan x="0" y="0">e</tspan></text>
  </g>
</svg>